<svg width="132" height="132" viewBox="0 0 132 132" fill="none" xmlns="http://www.w3.org/2000/svg">
<g filter="url(#filter0_d_840_20)">
<path d="M87.5769 99.1628C88.5415 101.478 87.6145 110.246 82.5 112.278C77.3855 114.311 70.8508 112.278 70.8508 112.278L58.9933 88.5631L38.5 109.056V16.5L101.278 79.2782H77.8883C79.0362 81.4792 86.3514 96.2216 87.5769 99.1628Z" fill="white" style="fill:white;fill-opacity:1;"/>
<path fill-rule="evenodd" clip-rule="evenodd" d="M44 29.7782V95.7782L60.5 79.2782L74.25 106.778C74.25 106.778 77.9697 107.965 79.75 106.778C81.5303 105.591 83.3011 103.201 82.5 101.278C78.7178 92.2009 68.75 73.7782 68.75 73.7782H88L44 29.7782Z" fill="black" style="fill:black;fill-opacity:1;"/>
</g>
<defs>
<filter id="filter0_d_840_20" x="35.9452" y="15.3645" width="67.8878" height="101.791" filterUnits="userSpaceOnUse" color-interpolation-filters="sRGB">
<feFlood flood-opacity="0" result="BackgroundImageFix"/>
<feColorMatrix in="SourceAlpha" type="matrix" values="0 0 0 0 0 0 0 0 0 0 0 0 0 0 0 0 0 0 127 0" result="hardAlpha"/>
<feOffset dy="1.41935"/>
<feGaussianBlur stdDeviation="1.27742"/>
<feColorMatrix type="matrix" values="0 0 0 0 0 0 0 0 0 0 0 0 0 0 0 0 0 0 0.65 0"/>
<feBlend mode="normal" in2="BackgroundImageFix" result="effect1_dropShadow_840_20"/>
<feBlend mode="normal" in="SourceGraphic" in2="effect1_dropShadow_840_20" result="shape"/>
</filter>
</defs>
</svg>
