<svg width="133" height="133" viewBox="0 0 133 133" fill="none" xmlns="http://www.w3.org/2000/svg">
<g filter="url(#filter0_d_840_13)">
<path d="M45.985 90.04C44.445 88.06 42.52 84.045 39.165 79.04C37.24 76.29 32.51 71.065 31.08 68.37C30.0491 66.7323 29.75 64.7381 30.255 62.87C31.1182 59.3182 34.4876 56.962 38.12 57.37C40.9294 57.9344 43.5112 59.3114 45.545 61.33C46.965 62.6675 48.2711 64.1208 49.45 65.675C50.33 66.775 50.55 67.215 51.54 68.48C52.53 69.745 53.19 71.01 52.695 69.14C52.31 66.39 51.65 61.77 50.715 57.645C50 54.51 49.835 54.015 49.175 51.65C48.515 49.285 48.13 47.305 47.415 44.61C46.7614 41.9622 46.2473 39.2818 45.875 36.58C45.1817 33.1244 45.6861 29.5357 47.305 26.405C49.2266 24.5976 52.0456 24.1205 54.455 25.195C56.8783 26.9844 58.685 29.4831 59.625 32.345C61.0663 35.8672 62.0283 39.5669 62.485 43.345C63.365 48.845 65.07 56.875 65.125 58.525C65.125 56.49 64.74 52.2 65.125 50.275C65.5064 48.2682 66.9012 46.6027 68.81 45.875C70.4479 45.3725 72.1806 45.2595 73.87 45.545C75.5752 45.9015 77.0856 46.8823 78.105 48.295C79.3792 51.5037 80.0864 54.9093 80.195 58.36C80.3423 55.3383 80.8594 52.3459 81.735 49.45C82.654 48.155 83.9962 47.2214 85.53 46.81C87.3482 46.4776 89.2117 46.4776 91.03 46.81C92.521 47.3085 93.8253 48.2484 94.77 49.505C95.9347 52.4219 96.6398 55.5019 96.86 58.635C96.86 59.405 97.245 56.49 98.455 54.565C99.0838 52.6983 100.661 51.3089 102.592 50.92C104.523 50.5312 106.514 51.2021 107.817 52.68C109.119 54.1579 109.534 56.2183 108.905 58.085C108.905 61.66 108.905 61.495 108.905 63.915C108.905 66.335 108.905 68.48 108.905 70.515C108.705 73.7335 108.263 76.9325 107.585 80.085C106.628 82.8742 105.296 85.5201 103.625 87.95C100.954 90.9198 98.7479 94.276 97.08 97.905C96.6661 99.7079 96.4814 101.556 96.53 103.405C96.5245 105.114 96.7464 106.815 97.19 108.465C94.9412 108.703 92.6737 108.703 90.425 108.465C88.28 108.135 85.64 103.845 84.925 102.525C84.5712 101.816 83.8471 101.368 83.055 101.368C82.2628 101.368 81.5387 101.816 81.185 102.525C79.975 104.615 77.28 108.41 75.41 108.63C71.725 109.07 64.135 108.63 58.14 108.63C58.14 108.63 59.13 103.13 56.875 101.15C54.62 99.17 52.31 96.86 50.605 95.32L45.985 90.04Z" fill="white" style="fill:white;fill-opacity:1;"/>
<path fill-rule="evenodd" clip-rule="evenodd" d="M45.985 90.04C44.445 88.06 42.52 84.045 39.165 79.04C37.24 76.29 32.51 71.065 31.08 68.37C30.0491 66.7323 29.75 64.7381 30.255 62.87C31.1182 59.3182 34.4876 56.962 38.12 57.37C40.9294 57.9344 43.5112 59.3114 45.545 61.33C46.965 62.6675 48.2711 64.1208 49.45 65.675C50.33 66.775 50.55 67.215 51.54 68.48C52.53 69.745 53.19 71.01 52.695 69.14C52.31 66.39 51.65 61.77 50.715 57.645C50 54.51 49.835 54.015 49.175 51.65C48.515 49.285 48.13 47.305 47.415 44.61C46.7614 41.9622 46.2473 39.2818 45.875 36.58C45.1817 33.1244 45.6861 29.5357 47.305 26.405C49.2266 24.5976 52.0456 24.1205 54.455 25.195C56.8783 26.9844 58.685 29.4831 59.625 32.345C61.0663 35.8672 62.0283 39.5669 62.485 43.345C63.365 48.845 65.07 56.875 65.125 58.525C65.125 56.49 64.74 52.2 65.125 50.275C65.5064 48.2682 66.9012 46.6027 68.81 45.875C70.4479 45.3725 72.1806 45.2595 73.87 45.545C75.5752 45.9015 77.0856 46.8823 78.105 48.295C79.3792 51.5037 80.0864 54.9093 80.195 58.36C80.3423 55.3383 80.8594 52.3459 81.735 49.45C82.654 48.155 83.9962 47.2214 85.53 46.81C87.3482 46.4776 89.2117 46.4776 91.03 46.81C92.521 47.3085 93.8253 48.2484 94.77 49.505C95.9347 52.4219 96.6398 55.5019 96.86 58.635C96.86 59.405 97.245 56.49 98.455 54.565C99.0838 52.6983 100.661 51.3089 102.592 50.92C104.523 50.5312 106.514 51.2021 107.817 52.68C109.119 54.1579 109.534 56.2183 108.905 58.085C108.905 61.66 108.905 61.495 108.905 63.915C108.905 66.335 108.905 68.48 108.905 70.515C108.705 73.7335 108.263 76.9325 107.585 80.085C106.628 82.8742 105.296 85.5201 103.625 87.95C100.954 90.9198 98.7479 94.276 97.08 97.905C96.6661 99.7079 96.4814 101.556 96.53 103.405C96.5245 105.114 96.7464 106.815 97.19 108.465C94.9412 108.703 92.6737 108.703 90.425 108.465C88.28 108.135 85.64 103.845 84.925 102.525C84.5712 101.816 83.8471 101.368 83.055 101.368C82.2628 101.368 81.5387 101.816 81.185 102.525C79.975 104.615 77.28 108.41 75.41 108.63C71.725 109.07 64.135 108.63 58.14 108.63C58.14 108.63 59.13 103.13 56.875 101.15C54.62 99.17 52.31 96.86 50.605 95.32L45.985 90.04Z" stroke="black" style="stroke:black;stroke-opacity:1;" stroke-width="4.125" stroke-linecap="round" stroke-linejoin="round"/>
<path d="M92.625 93.0424V74.0576C92.625 72.9212 91.7016 72 90.5625 72C89.4234 72 88.5 72.9212 88.5 74.0576V93.0424C88.5 94.1788 89.4234 95.1 90.5625 95.1C91.7016 95.1 92.625 94.1788 92.625 93.0424Z" fill="black" style="fill:black;fill-opacity:1;"/>
<path d="M81.735 93.0354L81.625 74.0409C81.6184 72.9072 80.6897 71.9935 79.5506 72C78.4115 72.0066 77.4935 72.9309 77.5 74.0646L77.61 93.0591C77.6166 94.1928 78.5453 95.1065 79.6844 95.1C80.8235 95.0934 81.7415 94.1691 81.735 93.0354Z" fill="black" style="fill:black;fill-opacity:1;"/>
<path d="M66.5 74.0845L66.61 93.0397C66.6167 94.1842 67.5455 95.1066 68.6845 95.1C69.8236 95.0933 70.7416 94.1601 70.735 93.0155L70.625 74.0603C70.6183 72.9158 69.6895 71.9934 68.5505 72C67.4114 72.0067 66.4934 72.9399 66.5 74.0845Z" fill="black" style="fill:black;fill-opacity:1;"/>
</g>
<defs>
<filter id="filter0_d_840_13" x="26.8168" y="22.5648" width="85.5747" height="90.8782" filterUnits="userSpaceOnUse" color-interpolation-filters="sRGB">
<feFlood flood-opacity="0" result="BackgroundImageFix"/>
<feColorMatrix in="SourceAlpha" type="matrix" values="0 0 0 0 0 0 0 0 0 0 0 0 0 0 0 0 0 0 127 0" result="hardAlpha"/>
<feOffset dy="1.41935"/>
<feGaussianBlur stdDeviation="0.567742"/>
<feColorMatrix type="matrix" values="0 0 0 0 0 0 0 0 0 0 0 0 0 0 0 0 0 0 0.5 0"/>
<feBlend mode="normal" in2="BackgroundImageFix" result="effect1_dropShadow_840_13"/>
<feBlend mode="normal" in="SourceGraphic" in2="effect1_dropShadow_840_13" result="shape"/>
</filter>
</defs>
</svg>
